<?xml version="1.0" encoding="iso-8859-1"?>
<!-- Generator: Adobe Illustrator 19.0.0, SVG Export Plug-In . SVG Version: 6.00 Build 0)  -->
<svg version="1.1" id="Capa_1" xmlns="http://www.w3.org/2000/svg" xmlns:xlink="http://www.w3.org/1999/xlink" x="0px" y="0px"
	 viewBox="0 0 477.646 477.646" style="enable-background:new 0 0 477.646 477.646;" xml:space="preserve">
<path style="fill:#B53C33;" d="M183.008,375.897c19.296,11.936,31.072,32.664,46.736,49.08
	c23.136,24.232,55.792,39.112,89.256,40.672c-19.968-29.984-14.296-69.936-3.936-104.44s25.776-59.856,20.936-95.56l-87.488-124.24
	c-8.896-13.624-25.32-22.032-41.392-17.72c-9.832,2.64-18.768,8.072-27.696,12.792c-14.264,7.544-27.768,16.416-41.856,24.264
	C95.496,184.177,48.08,197.953,0,200.697c18.928,8.6,30.168,27.848,43.112,44.12c18.248,22.928,41.944,41.488,68.568,53.728
	L183.008,375.897z"/>
<g>
	<circle style="fill:#DDA137;" cx="336" cy="145.649" r="48"/>
	<path style="fill:#DDA137;" d="M224,185.649l-216,216l72,72l224-224l0.4,0.4c21.872,21.872,57.328,21.872,79.192,0l88.408-88.4
		l-32-32l-84.688,84.688c-6.248,6.248-16.376,6.248-22.624,0L271.6,153.249c-21.872-21.872-57.328-21.872-79.192,0L104,241.649
		l32,32"/>
</g>
<g>
	
		<rect x="11.003" y="363.652" transform="matrix(-0.7071 0.7071 -0.7071 -0.7071 450.5759 556.6691)" style="fill:#201F2D;" width="197.99" height="16"/>
	<path style="fill:#201F2D;" d="M313.384,122.049c-6.048,6.048-9.384,14.088-9.384,22.632c0,8.544,3.336,16.576,9.384,22.624
		l11.312-11.312c-3.024-3.024-4.696-7.04-4.696-11.312s1.672-8.288,4.696-11.32L313.384,122.049z"/>
	
		<rect x="148.403" y="29.652" transform="matrix(-0.7071 0.7071 -0.7071 -0.7071 347.5582 -68.6587)" style="fill:#201F2D;" width="79.191" height="16"/>
	
		<rect x="124.69" y="81.652" transform="matrix(-0.7071 0.7071 -0.7071 -0.7071 295.5627 56.8777)" style="fill:#201F2D;" width="22.624" height="16"/>
	
		<rect x="92.69" y="113.65" transform="matrix(-0.7071 0.7071 -0.7071 -0.7071 263.5616 134.1298)" style="fill:#201F2D;" width="22.624" height="16"/>
	
		<rect x="271.711" y="21.659" transform="matrix(-0.7071 0.7071 -0.7071 -0.7071 533.0877 -161.4939)" style="fill:#201F2D;" width="56.559" height="16"/>
	
		<rect x="244.684" y="65.622" transform="matrix(-0.7071 0.7071 -0.7071 -0.7071 489.0713 -55.3354)" style="fill:#201F2D;" width="22.624" height="16"/>
	
		<rect x="404.395" y="253.657" transform="matrix(-0.7071 0.7071 -0.7071 -0.7071 942.9592 132.7278)" style="fill:#201F2D;" width="79.191" height="16"/>
	
		<rect x="380.714" y="305.641" transform="matrix(-0.7071 0.7071 -0.7071 -0.7071 891.007 258.2142)" style="fill:#201F2D;" width="22.624" height="16"/>
	
		<rect x="348.714" y="337.615" transform="matrix(-0.7071 0.7071 -0.7071 -0.7071 858.9889 335.4254)" style="fill:#201F2D;" width="22.624" height="16"/>
	
		<rect x="164.649" y="433.651" transform="matrix(-0.7071 0.7071 -0.7071 -0.7071 612.6783 629.5225)" style="fill:#201F2D;" width="22.624" height="16"/>
	
		<rect x="396.395" y="341.667" transform="matrix(-0.7071 0.7071 -0.7071 -0.7071 991.5345 288.6264)" style="fill:#201F2D;" width="79.191" height="16"/>
	
		<rect x="372.722" y="393.65" transform="matrix(-0.7071 0.7071 -0.7071 -0.7071 939.5959 414.1072)" style="fill:#201F2D;" width="22.624" height="16"/>
	
		<rect x="340.722" y="425.649" transform="matrix(-0.7071 0.7071 -0.7071 -0.7071 907.5948 491.3593)" style="fill:#201F2D;" width="22.624" height="16"/>
</g>
<g>
</g>
<g>
</g>
<g>
</g>
<g>
</g>
<g>
</g>
<g>
</g>
<g>
</g>
<g>
</g>
<g>
</g>
<g>
</g>
<g>
</g>
<g>
</g>
<g>
</g>
<g>
</g>
<g>
</g>
</svg>
